<?xml version="1.0" encoding="UTF-8"?><svg xmlns="http://www.w3.org/2000/svg" viewBox="0 0 1188.78 498.44"><defs><style>.j{fill:#979797;}.k{fill:#717373;}.l{fill:#39383a;}.m{fill:#a7a7a7;}.n{fill:#889292;}.o{fill:#363737;}.p{fill:#232424;}.q{fill:#cbcbcb;}.r{fill:#3c4141;}.s{fill:#cacaca;}.t{fill:silver;}.u{fill:#b9bdbd;}.v{fill:#252227;}.w{fill:#626363;}.x{fill:#707171;}.y{fill:#d67e7f;}.a`{fill:#8f9090;}.aa{fill:#424343;}.ab{fill:#cfcfcf;}.ac{fill:#d7d7d7;}.ad{fill:#e1e1e1;}.ae{fill:#383939;}.af{fill:#535455;}.ag{fill:#d7d8d8;}.ah{fill:#767676;}.ai{fill:#484949;}.aj{fill:#b0b1b1;}.ak{fill:#383436;}.al{fill:#adadad;}.am{fill:#4f4f4f;}.an{fill:#2d2b2b;}.ao{fill:#ababab;}.ap{fill:#606060;}.aq{fill:#7a7a7a;}.ar{fill:#c6c5c5;}.as{fill:#8a8a8a;}.at{fill:#a0a1a1;}.au{fill:#595959;}.av{fill:#838383;}.aw{fill:#666;}</style></defs><g id="a"><path class="m" d="M541.34,116.06s-17.38-4.47-18.83,31.69-4.7,49.95-4.7,49.95c0,0-1.9,5.95-7.83,10.58s-30.93,21.63-30.93,21.63l7.07,67.11s.54-5.89,8.24-5,34.72,5,34.72,5v-98.15l12.27-82.81"/><path class="m" d="M647.05,115.91s19.11-4.05,20.57,32.11,4.7,49.95,4.7,49.95c0,0,1.9,5.95,7.83,10.58,5.93,4.63,30.93,21.63,30.93,21.63l-8.52,67.23s.92-6.01-6.78-5.12c-7.7,.89-36.22,5.12-36.22,5.12l1.5-98.27-14-83.23"/><path class="ar" d="M23.05,191.91s-4.7-9.7-11.85-1.85S.05,205.91,.05,205.91c0,0-1,5,6,6h0s3.5-9.3,11.5-13.5c.71-.37-.5-.7-.5-.7,0,0-.5-4.3,6-5.8"/><path class="j" d="M466.05,27.91s12-.57,13-10.78,0-14.09,0-14.09c0,0-.56-2.52-6.28,1.17s-4.72,4.7-4.72,4.7c0,0,4,2-2,19"/><path class="ag" d="M64.05,172.91s-10,0-15,11-3.93,15-3.93,15c0,0,1.9,3.61,9.42,2.81l4.51-2.81s-3.12-.87-2.56-3.93,7.56-22.07,7.56-22.07"/><path class="ar" d="M353.05,337.91l8.5,5.5s2,5.17,0,8.09-6,13.91-16,16.91l-4.5-2.5s14.5-24.5,12-28"/><path class="ar" d="M848.55,344.41l-9.18,5.29s-2,5.17,0,8.09,6,13.91,16,16.91l4.5-2.5s-12.32-21.79-11.32-27.79"/><g><path class="k" d="M583.05,193.91s-17-4-11-11c5.46-6.37,20.45-6.38,23.1-6.15,.27,.02,.52,.02,.79,0,2.51-.22,16.57-.13,21.11,7.15,5,8-16.11,10-16.11,10h-17.89Z"/><path class="aj" d="M580.53,192.35c-3.34-1.97-2.97-6.94,.63-8.39,2.8-1.13,6.87-2.35,11.13-2.25,5.18,.13,10.46,1.55,13.26,2.7,1.88,.77,2.91,3.03,2.65,5.04-.24,1.88-1.61,3.82-6.12,4.03-7.46,.35-15.69,.12-18.32,.03-.61-.02-1.21-.16-1.76-.41-.41-.19-.92-.44-1.46-.76Z"/><path class="r" d="M573.84,186.17c-.21-1.69,.69-4.13,6.25-6.12,.18-.06,.38-.1,.57-.1l21.73,.1s10.99-.45,11.28,6.55c0,.14-.03,.29-.09,.43-.49,1.09-2.07,1.15-2.75,.17-.36-.51-.78-1.05-1.19-1.43-3.46-3.19-10.08-4.35-12.11-4.5-.06,0-.11-.01-.17-.01l-9.8,.16c-2.84-.09-4,0-7,2-1.45,.96-2.9,2.97-4.2,3.86-.98,.67-2.37,.08-2.51-1.1Z"/></g></g><g id="b"><path class="al" d="M502.58,182.38l-2.46,19.34-177.07-38.28s-34-1.52-42.9,1.06c-1.37,.4-.79-3.43-1.1-3.58-.19-.09,24.86-9.23,26.46-14.16,0,0,2.27,2.5,6.54,4.16,3.85,1.49,8-4,33,2s157.53,29.47,157.53,29.47"/><path class="al" d="M684.99,183.92l2.56,20.49,177-39s31.08-4.3,39.87-1.38c4.13,1.38,6.82,.52,7.13,.38,.19-.09-27.4-10.07-29-15,0,0-2.75,1.38-7.03,3.04-3.85,1.49-8-4-33,2-25,6-157.53,29.47-157.53,29.47"/><path class="q" d="M984.05,341.59l9.98-22.82-228.98-68.85s-11-5-25,3c0,0-28.52-7.12-30.26-10.56-1.74-3.44-3.31,21.98-3.31,21.98l8.57,.58s15-4,32,4,237,72.67,237,72.67"/><path class="q" d="M205.8,339.79l-9.98-22.82,228.98-68.85s11-5,25,3c0,0,28.52-7.12,30.26-10.56s2.31,21.98,2.31,21.98l-7.57,.58s-15-4-32,4c-17,8-237,72.67-237,72.67"/></g><g id="c"><path class="as" d="M486.11,297.02s-.46-5.89,8.24-5,34.72,5,34.72,5l5,25-38.85,23.57s-11.04-38.46-9.1-48.57Z"/><path class="as" d="M703.1,296.97s.46-5.89-8.24-5-34.72,5-34.72,5l-5,25,38.85,23.57s11.04-38.46,9.1-48.57Z"/><path class="n" d="M142.05,337.91s29,18,64-3l-2,13.07s-43.5,18.43-61-1.07l-1-9Z"/><path class="n" d="M1047.61,342.41s-29.06,17-64-3l-1,13.07s46.94,19.94,64-1.07l1-9Z"/><path class="ac" d="M141.05,294.91s2,20,60,4l5,36s-36,22-64,3c0,0-4-41-1-43Z"/><path class="ac" d="M1048.86,299.36s-2,20-60,4l-5,36s36,22,64,3c0,0,4-41,1-43Z"/><path class="ab" d="M298.05,108.91s9,10-26,18c0,0-24,2-30-7l5,35s12,12,32,7,27.46-14.16,27.46-14.16c0,0-3.46-40.84-8.46-38.84Z"/><path class="ab" d="M890.55,110.41s-9,9,25.39,17.91c0,0,23,3,29-6l-4,34s-12,12-32,7c-20-5-27.46-14.16-27.46-14.16,0,0,4.06-40.75,9.06-38.75Z"/><path class="n" d="M909.55,172.41s20.29,.44,24.5-3.59c2-1.91,3.48-5.24,5.5-6.41,1.31-.76,1.39-6.17,1.39-6.17,0,0-14.39,11.84-31.39,7.17l.5,8"/><path class="n" d="M280.05,170.41s-19.79,1.44-24-2.59c-2-1.91-3.45-7.35-6-7.91-1.48-.33-3-5-3-5,0,0,16,11.26,33,6.58v8.92"/></g><g id="d"><polygon class="x" points="534.07 322.02 655.92 322.02 656.07 364.02 534.07 364.02 534.07 322.02"/><polygon class="ab" points="529.07 297.02 660.09 297.02 655.92 322.02 534.07 322.02 529.07 297.02"/><path class="t" d="M529.07,200.87s123.04-5.93,132.02,.61c0,0,4.02,85.54-1,95.54h-131.02s-8-86.3,0-96.15Z"/><path class="ao" d="M554.07,94.02h78.89s21.15,1.91,28.13,107.46c0,0-87.54-3.07-132.02-.61,0,0,8-106.85,25-106.85Z"/><path class="w" d="M534.07,322.02l-17.63-5.88c-1.66-.55-3.37,.68-3.37,2.43v3.45s-13,1-16,7c-4.82,9.63-7,30,27,29l7,12s1-1,3-6,0-42,0-42Z"/><path class="w" d="M656.07,322.58l17.63-5.88c1.66-.55,3.37,.68,3.37,2.43v3.45s13,1,16,7c4.82,9.63,7,30-27,29l-7,12s-1-1-3-6,0-42,0-42Z"/></g><g id="e"><path class="av" d="M665.05,152.91s20-2,23,36c.55,6.98,0-2,1.93,14.28l177.07-38.28s19-5,43,0v6.59s16,1.41,24-2.59c0,0,4-8,6-7s-3,22-3,22c0,0-5,13-20,11s-38-9-49-4-156.98,39.27-156.98,39.27l-35.58-3.51-10.44-73.76Z"/><path class="av" d="M525.05,151.44s-20-2-23,36c-.55,6.98,0-2-1.93,14.28l-177.07-38.28s-19-5-43,0v6.59s-16,1.41-24-2.59c0,0-4-8-6-7s3,22,3,22c0,0,5,13,20,11,15-2,38-9,49-4s156.98,39.27,156.98,39.27l35.58-3.51,10.44-73.76Z"/><path class="ap" d="M482.55,262.41l-9,1s-5.63-10.85-35.57,.83-220.93,64.67-220.93,64.67l-4,7-8,3-1,9.07s-43.09,17.07-59.54,0l32.54,138.93s20,15,29,4l-25.93-113.92s17.15,1.14,34.04-12.97c0,0,18.89-14.79,54.39-20.45s195.5-41.66,195.5-41.66c0,0,6.52-3.97,17.76-9.98l3.74,.48-3-30Z"/><path class="ap" d="M706.55,264.41l8.5,.5s5.13-9.67,35.07,2,220.93,64.67,220.93,64.67l4,7,9,3v9.07s45,24.26,63-1.74l-37,141s-19,17-30,3l30-110s-19.22-2.11-36.11-16.22c0,0-18.89-14.79-54.39-20.45-33.06-5.27-174.07-36.85-193.32-41.17-1.38-.31-2.66-.96-3.72-1.9-2.6-2.27-8.37-6.94-16.46-11.27l-2.5-.5,3-27Z"/></g><g id="f"><path class="aw" d="M23.05,191.91s-5,1-6,3,0,2.8,0,2.8c0,0-12,9.2-11,14.2,0,0,77,39,81,40s55,12.59,55,12.59c0,0-1.92-8.29,4.54-9.44l-55.54-25.15s-26-12-31-13-6-5-20-9-17-16-17-16Z"/><path class="au" d="M341.05,365.91s13-20,12-28l-102-58s-4-4-15-3-41-3-41-3l-11.15,7.5s14.15,38.5,19.15,46.5l138,38Z"/><path class="ai" d="M141.05,294.91s-1.92-9.14,5.54-11.57v-5.8s-2.22,.2-2.88-5.22l-56.66-20.41,55,12.59s8.66,6.49,28.5,5.91c0,0,8.63,11.36,14.06,12.93s8.58,17.6,8.58,17.6c0,0-45.15,12.97-52.15-6.03Z"/><path class="au" d="M859.55,372.41s-11.84-19.98-11-28l91.08-57.67s3.92-4.08,14.94-3.3,40.93-3.83,40.93-3.83l11.3,7.27s-13.37,38.78-18.2,46.88l-129.04,38.66Z"/><path class="ai" d="M1049.91,299.5s1.73-9.17-5.78-11.45l-.12-5.8s2.22,.15,2.77-5.27l56.23-21.56-54.73,12.7s-7.16,6.71-27.01,6.54c0,0-9.75,12.49-15.16,14.17-5.4,1.68-8.22,17.77-8.22,17.77,0,0,45.4,12.05,52.01-7.09Z"/><path class="ah" d="M213.57,154.91L59.05,198.91s-4-1-2-6,7-20,7-20L195.05,106.91l46.02-5.48s.04,7.34,9.51,6.41l-23.68,38.91s-5.8,8.16-13.33,8.16Z"/><path class="an" d="M272.05,85.91s15.92-13.93,24-5c9.5,10.5-19,13-19,13,0,0-6,6-13.5,5,0,0-11.5,12-19.5,9,0,0-11.94-10.52,5.53-15.26l9.47-1.74s7-5,13-5Z"/><path class="am" d="M468.05,8.91s4,0-2,19l-124,51s-6-2-12,1-26,9-26,9l-7.91-1.85s2.91-2.15-.09-6.15c0,0,8.13-5.2,19.07-2.6L449.05,21.91s17-7,19-13Z"/><path class="aa" d="M294.96,102.44s5.09-5.52,5.09-8.52l42-15s-.78-3.99-14.5,1.5c-10.2,4.08-23.5,8.5-23.5,8.5l-7.91-1.85s-10.59,6.35-19.09,6.85c0,0-9,6.5-14.5,4.5,0,0-6.47,6.93-12,9l-8.5,13.5s10.72,11.87,34.36,4.93c23.64-6.93,23.64-11.93,21.64-16.93l-3.09-6.48Z"/><path class="j" d="M723.72,27.04s-11.82-2.15-11.46-12.41c.36-10.26,1.87-13.96,1.87-13.96,0,0,.88-2.43,6.07,2,5.18,4.42,4.06,5.28,4.06,5.28,0,0-4.23,1.45-.54,19.1"/><path class="ag" d="M1123.67,176.86s10,.11,14.87,11.17c4.88,11.06,3.77,15.04,3.77,15.04,0,0-1.95,3.59-9.45,2.7l-4.48-2.86s3.13-.83,2.6-3.91-7.31-22.15-7.31-22.15"/><path class="ah" d="M974.36,157.17l154.02,45.74s4.01-.95,2.07-5.98-6.77-20.08-6.77-20.08l-130.25-67.47-44.96-4.99s-1.11,6.32-9.58,6.3l23.24,39.17s4.72,7.22,12.24,7.3Z"/><path class="am" d="M725.05,7.91s-4,2-1.71,19.42l123.42,52.4s6.02-1.93,11.99,1.14,25.9,9.29,25.9,9.29l7.93-1.77s-2.89-2.18,.16-6.14c0,0-8.07-5.3-19.03-2.82l-133.29-57.91s-13.42-7.59-15.35-13.61Z"/><path class="aa" d="M893.57,103.78s-5.02-5.58-4.99-8.58l-41.83-15.47s2.57-3.81,14.2,1.15c10.6,4.53,23.69,9.27,23.69,9.27l7.93-1.77s11.01,6.98,19.01,7.07c0,0,7.92,7.09,13.44,5.15,0,0,8.36,7.95,13.86,10.09l7.39,12.14s-10.85,11.76-34.41,4.56c-23.56-7.2-23.5-12.2-21.45-17.18l3.16-6.44Z"/><path class="an" d="M916.67,87.52s-17.61-15.24-24.12-5.11c-7.18,11.16,19.03,14.05,19.03,14.05,0,0,5.97,6.95,13.44,5.15,0,0,12.53,12.8,19.4,8.22,0,0,14.13-10.42-5.36-15.32l-9.45-1.85s-6.94-5.08-12.94-5.15Z"/><path class="an" d="M174.05,261.37s8.59,1.01,18,4.54c8,3,3.77,9.54,3.77,9.54,0,0-4.95,10.06-12.77,7.46-9-3-9-12-17-12s-19-1-24-6.41c-1.73-1.88,1-8.29,2.46-8.87,3.04-1.22,9.54-5.72,23.54,1.28l6,4.46Z"/><path class="aw" d="M1165.73,195.86s5,1,6,3,0,2.8,0,2.8c0,0,12,9.2,11,14.2,0,0-77,39-81,40-4,1-55,12.59-55,12.59,0,0,1.92-7.29-4.54-8.44l55.54-26.15s26-12,31-13,6-5,20-9c14-4,17-16,17-16Z"/><path class="ar" d="M1165.73,195.86s4.7-9.7,11.85-1.85c7.15,7.85,11.15,15.85,11.15,15.85,0,0,1,5-6,6h0s-4.18-8.45-11.18-14.45l.18,.25s.82-4.25-6-5.8"/><path class="an" d="M1016.23,266.63s-8.57,1.19-17.9,4.91c-7.94,3.16-3.57,9.62-3.57,9.62,0,0,5.15,9.96,12.92,7.2,9.3-3.31,8.71-12.18,16.75-12.34s18.98-1.39,23.86-6.9c1.69-1.91-1.1-9.13-2.64-8.82s-9.66-5.52-23.51,1.76l-5.91,4.58Z"/></g><g id="g"><path class="aq" d="M566.05,462.91h52.5c1.43,0,2.85-.28,4.17-.82,4.1-1.69,12.33-6.18,14.33-11.18,2.7-6.76,0-86.89,0-86.89h-87.41s-.17,61.82,.41,82.89c.15,5.22,8,14,16,16Z"/><path class="a`" d="M527.05,429.91s-4,0-4-5v-40.93s10.04-15.85,11.02-19.96h15.57l-.02,65.89h-22.56Z"/><path class="a`" d="M660.69,430.25s4,0,4-5v-40.93s-7.66-16.29-8.64-20.4l-17.95,.45,.02,65.89h22.56Z"/><path class="o" d="M573.05,405.91h43.76s13.24,4,13.24,19v16.59s-1,11.41-13,12.41-47.2,0-47.2,0c0,0-9.8-1-11.8-13v-21.43c0-1.07,.25-2.13,.73-3.08,1.59-3.12,5.91-9.72,14.27-10.48Z"/><path class="p" d="M556.55,363.91v14.78s.5,5.22,9.5,5.22h55.65s9.04,1.17,9.2-6.92,0-13.08,0-13.08h-74.35Z"/><path class="ae" d="M534.07,364.02l-10.07,18.44,2.05,27.45s1,2,5,2h6.2v8.59s.8,2.41-4.2,2.41-7,1-7,3-.15,4-.15,4l22.3,.22v-4.42s-1.15-2.8-6.15-2.8c0,0-3,0-3-2v-9h6.17c.77,0,1.54-.21,2.19-.63,1.15-.75,2.55-2.31,2.21-5.37-.56-5,.02-41.89,.02-41.89h-15.57Z"/><path class="ae" d="M655.55,363.41l8.69,20.06-3.05,26.45s-1,2-5,2h-6.2v8.59s-.8,2.41,4.2,2.41,7,1,7,3,.15,4,.15,4l-22.3,.22v-4.42s1.15-2.8,6.15-2.8c0,0,3,0,3-2v-9h-6.17c-.77,0-1.54-.21-2.19-.63-1.15-.75-2.55-2.31-2.21-5.37,.56-5-1.02-41.89-1.02-41.89l18.95-.62Z"/></g><g id="h"><path class="af" d="M1040.55,380.41s-3.97-10.54-15.6,.46c0,0-7.63,9-7.63,24,0,15,18,3,18,3l5.23-27.46Z"/><path class="y" d="M1035.82,403.37s-.89,1.83-5.95,.68c-4.33-.99-2.93-6.4-2.44-7.94,.09-.29,.16-.59,.21-.89,.36-2.13,2.54-10.55,13.92-8.8,.18-1.08-1.11,8.73-5.73,16.96Z"/><path class="ak" d="M1029.05,391.49s1.5-11.27,11.5-11.08l1,6s-5.9-.16-12.5,5.08Z"/><path class="af" d="M143.41,368.25s3.97-10.54,15.6,.46c0,0,7.63,9,7.63,24,0,15-18,3-18,3l-5.23-27.46Z"/><path class="y" d="M148.15,391.21s.89,1.83,5.95,.68c4.33-.99,2.93-6.4,2.44-7.94-.09-.29-.16-.59-.21-.89-.36-2.13-2.54-10.55-13.92-8.8-.18-1.08,1.11,8.73,5.73,16.96Z"/><path class="ak" d="M154.91,379.33s-1.5-11.27-11.5-11.08l-1,6s5.9-.16,12.5,5.08Z"/></g><g id="i"><g><path class="k" d="M581.59,192.49s-17-4-11-11c5.46-6.37,20.45-6.38,23.1-6.15,.27,.02,.52,.02,.79,0,2.51-.22,16.57-.13,21.11,7.15,5,8-16.11,10-16.11,10h-17.89Z"/><path class="aj" d="M579.08,190.93c-3.34-1.97-2.97-6.94,.63-8.39,2.8-1.13,6.87-2.35,11.13-2.25,5.18,.13,10.46,1.55,13.26,2.7,1.88,.77,2.91,3.03,2.65,5.04-.24,1.88-1.61,3.82-6.12,4.03-7.46,.35-15.69,.12-18.32,.03-.61-.02-1.21-.16-1.76-.41-.41-.19-.92-.44-1.46-.76Z"/><path class="r" d="M572.39,184.75c-.21-1.69,.69-4.13,6.25-6.12,.18-.06,.38-.1,.57-.1l21.73,.1s10.99-.45,11.28,6.55c0,.14-.03,.29-.09,.43-.49,1.09-2.07,1.15-2.75,.17-.36-.51-.78-1.05-1.19-1.43-3.46-3.19-10.08-4.35-12.11-4.5-.06,0-.11-.01-.17-.01l-9.8,.16c-2.84-.09-4,0-7,2-1.45,.96-2.9,2.97-4.2,3.86-.98,.67-2.37,.08-2.51-1.1Z"/></g><path class="l" d="M505.51,335.07c-.13-.79-.71-1.42-1.5-1.58-1.15-.25-2.82-.25-3.15,1.64-.51,2.96-2.85,10.67,4.52,14.98,7.37,4.31,14.78,2.55,17.09,.91s5.21-6.66,5.64-9.18c.16-.94,.94-5.43-2.81-3.92-.37,.15-.7,.41-.91,.75-1.03,1.62-4.66,6.96-8.14,7.22-2.8,.21-6.23-.54-8.64-2.11-1.01-.66-1.81-2.2-1.82-3.4,0-1.66-.07-3.9-.29-5.32Z"/><path class="l" d="M684.38,335.87c.18-.78,.81-1.37,1.6-1.48,1.17-.17,2.83-.06,3.03,1.85,.31,2.98,2.13,10.84-5.51,14.65-7.65,3.81-14.92,1.55-17.12-.23s-4.75-7-5.01-9.53c-.1-.95-.57-5.48,3.06-3.73,.36,.18,.67,.46,.86,.81,.92,1.69,4.18,7.25,7.64,7.74,2.78,.4,6.25-.13,8.76-1.53,1.05-.59,1.96-2.07,2.04-3.27,.12-1.65,.33-3.88,.65-5.29Z"/><path class="v" d="M501.65,344.29c-.41-.92-.22-2.04,.57-2.67,.65-.52,2.12-1.07,3.11,.41,3.24,4.87,9.54,6.72,14.52,3.65,1.62-1,2.43-1.93,2.83-2.55,.35-.54,.91-.92,1.54-1.02,1.26-.21,2.98-.14,2.32,2.01-1,3.27-5.08,6.49-9,7.27-5,1-13.5-1.73-15.9-7.12Z"/><path class="v" d="M688.81,344c.36-.95,.11-2.05-.71-2.63-.68-.48-2.18-.95-3.08,.58-2.97,5.04-9.16,7.22-14.3,4.42-1.67-.91-2.53-1.8-2.96-2.39-.38-.52-.95-.87-1.59-.94-1.27-.14-2.98,.02-2.21,2.14,1.17,3.21,5.42,6.21,9.37,6.78,5.05,.73,13.39-2.45,15.49-7.96Z"/><path class="v" d="M569.28,104.09c-1.41-.86-1.42-2.93,0-3.77,1.31-.77,2.82-.9,4.27-.9,5,0,37.77-.07,40.68-.15,.14,0,.26,0,.39,.02,1.3,.19,5.63,.13,5.93,3.13,.24,2.38-7,2-7,2h-43.12c-.41,0-.81-.11-1.15-.33h0Z"/><path class="s" d="M511.86,320.96s.7-2.12,.41-4.1-5.35-.23-7.06,1.03,.58,3.96,.58,3.96c0,0,3.24,.54,6.07-.88Z"/><path class="s" d="M677.72,321.74s-.57-2.16-.17-4.12,5.35,.09,6.98,1.45c1.63,1.36-.81,3.92-.81,3.92,0,0-3.27,.34-6-1.24Z"/><g><path class="ad" d="M372.55,263.41l11-4s28,7,31,10,2,3,2,3l-7,4s-31-15-37-13Z"/><path class="at" d="M404.05,314.91l13-2s1-2,1-4c0-1.83,2.51-23.73,2.94-27.46,.04-.36,0-.73-.1-1.07-.59-1.87-2.64-7.96-4.34-7.96-2.55,0-7,4-7,4,0,0,3.5,1.5,1.5,12.5s-5,25-7,26Z"/></g><g><path class="ad" d="M815.75,264.62l-11.21-3.35s-27.54,8.62-30.36,11.79c-2.82,3.17-1.82,3.11-1.82,3.11l7.22,3.59s30.07-16.78,36.18-15.13Z"/><path class="at" d="M787.31,317.87l-13.09-1.24s-1.11-1.94-1.23-3.93c-.11-1.83-3.89-23.55-4.53-27.24-.06-.36-.05-.72,.04-1.08,.48-1.9,2.17-8.1,3.86-8.2,2.55-.15,7.22,3.59,7.22,3.59,0,0-3.41,1.7-.77,12.57,2.64,10.86,6.45,24.67,8.5,25.55Z"/></g><path class="u" d="M796.55,307.21l.98-7.82s2.08-1.95,3,0,1.91,3.47,1.91,3.47c0,0,1.19,1.03,2.29,0s2.08-2.01,2.08-2.01c0,0,1.95-.98,1.95,0v7.35s-.98,3.4-2.93,1.44v-3.3c0-.33-.27-.61-.61-.61h-1.35l-.4,.4c-.33,.33-.85,.34-1.19,.03l-1.33-1.22c-.29-.27-.76-.16-.91,.2l-1.06,2.55s-1.95,.98-2.44-.49Z"/><path class="u" d="M820.28,312.06l-3.53-8.81c-.11-.26-.36-.44-.65-.44h-1.02c-.29,0-.56,.15-.71,.39l-4.3,6.88c-.18,.29-.07,.68,.23,.83l.8,.4c.32,.16,.71,.03,.88-.29l.44-.89c.14-.28,.46-.41,.76-.31l2.23,.74c.13,.04,.24,.11,.33,.21l2.44,2.44c.21,.21,.53,.26,.79,.13l1.01-.51c.28-.14,.41-.48,.29-.77Zm-4.76-4.07l-.96-.15c-.4-.06-.59-.54-.33-.85l.52-.64c.19-.24,.56-.2,.7,.07l.5,.97c.16,.3-.1,.65-.43,.6Z"/><path class="u" d="M820.44,302.81h.66c.28,0,.54,.16,.67,.41l2.59,4.89,3.54-3.87c.23-.25,.61-.26,.85-.02l1.03,1.03c.28,.28,.31,.73,.07,1.05l-4.87,6.49c-.26,.35-.8,.29-.97-.11l-4.1-9.03c-.18-.39,.11-.84,.54-.84Z"/><path class="u" d="M832.76,306.54l.61,.17c.39,.11,.65,.49,.6,.9l-.84,7.54c-.05,.41-.42,.71-.84,.65l-.75-.1c-.42-.06-.71-.45-.65-.87l1.19-7.87c.05-.32,.37-.52,.68-.43Z"/><path class="u" d="M846.34,310.75h0c.03-.13-.02-.26-.12-.34l-1.61-1.2c-1.63-1.21-3.72-1.6-5.68-1.07l-1.06,.29c-1.1,.3-1.9,1.24-2.03,2.37l-.11,1.01c-.14,1.25,.25,2.5,1.09,3.45l2.09,2.36c.73,.83,1.78,1.3,2.89,1.3h1.9c.84,0,1.6-.47,1.97-1.22h0c.23-.47,.14-1.03-.23-1.4h0c-.25-.25-.58-.38-.92-.38h-2.48c-1.23,0-2.39-.62-3.07-1.64l-.1-.15c-.49-.73-.48-1.68,.03-2.4l.07-.11c.47-.68,1.25-1.08,2.07-1.08h.88c.63,0,1.23,.28,1.63,.77h0c.32,.39,.8,.61,1.3,.61h0c.71,0,1.32-.48,1.5-1.17Z"/><path class="u" d="M853.96,314h0c.33,.23,.78,.21,1.09-.05s.71-.54,.98-.54c.32,0,.84,.4,1.17,.69,.22,.19,.34,.46,.34,.75v1.32c0,.57-.3,1.1-.8,1.39,0,0-2.2,1.86-3.2,1.86-.22,0-.94,.78-1,1-.02,.1,0,0,0,0,0,.51,.49,1.32,1,1.37l5.12,.54c.47,.05,.88-.32,.88-.79v-.45c0-.37-.3-.67-.67-.67h-1.02c-.2,0-.38-.08-.52-.22h0c-.56-.56-.51-1.48,.11-1.98,.4-.32,.88-.63,1.35-.9,1.02-.59,1.53-1.79,1.25-2.94l-.17-.66c-.21-.82-.78-1.5-1.56-1.83l-1.29-.54c-.28-.12-.58-.16-.88-.12l-.25,.03c-.86,.1-1.64,.56-2.15,1.26l-.04,.05c-.34,.46-.23,1.11,.24,1.44Z"/></g></svg>
